{
	"asset":{
		"generator":"Khronos glTF Blender I/O v4.3.47",
		"version":"2.0"
	},
	"scene":0,
	"scenes":[
		{
			"name":"Scene",
			"nodes":[
				0
			]
		}
	],
	"nodes":[
		{
			"mesh":0,
			"name":"tire",
			"rotation":[
				0.7071068286895752,
				0,
				0,
				0.7071068286895752
			]
		}
	],
	"materials":[
		{
			"doubleSided":true,
			"emissiveFactor":[
				1,
				1,
				1
			],
			"name":"texture_mat",
			"pbrMetallicRoughness":{
				"baseColorFactor":[
					0,
					0,
					0,
					1
				]
			}
		}
	],
	"meshes":[
		{
			"name":"tire",
			"primitives":[
				{
					"attributes":{
						"POSITION":0,
						"NORMAL":1,
						"TEXCOORD_0":2
					},
					"indices":3,
					"material":0
				}
			]
		}
	],
	"accessors":[
		{
			"bufferView":0,
			"componentType":5126,
			"count":30999,
			"max":[
				23.833017349243164,
				24.128028869628906,
				6.167758941650391
			],
			"min":[
				-23.974733352661133,
				-23.678489685058594,
				-6.426979064941406
			],
			"type":"VEC3"
		},
		{
			"bufferView":1,
			"componentType":5126,
			"count":30999,
			"type":"VEC3"
		},
		{
			"bufferView":2,
			"componentType":5126,
			"count":30999,
			"type":"VEC2"
		},
		{
			"bufferView":3,
			"componentType":5123,
			"count":33441,
			"type":"SCALAR"
		}
	],
	"bufferViews":[
		{
			"buffer":0,
			"byteLength":371988,
			"byteOffset":0,
			"target":34962
		},
		{
			"buffer":0,
			"byteLength":371988,
			"byteOffset":371988,
			"target":34962
		},
		{
			"buffer":0,
			"byteLength":247992,
			"byteOffset":743976,
			"target":34962
		},
		{
			"buffer":0,
			"byteLength":66882,
			"byteOffset":991968,
			"target":34963
		}
	],
	"buffers":[
		{
			"byteLength":1058852,
			"uri":"mesh.bin"
		}
	]
}
