{
	"asset":{
		"generator":"Khronos glTF Blender I/O v4.3.47",
		"version":"2.0"
	},
	"scene":0,
	"scenes":[
		{
			"name":"Scene",
			"nodes":[
				0
			]
		}
	],
	"nodes":[
		{
			"mesh":0,
			"name":"mesh",
			"rotation":[
				0.7071068286895752,
				0,
				0,
				0.7071068286895752
			]
		}
	],
	"materials":[
		{
			"doubleSided":true,
			"emissiveFactor":[
				1,
				1,
				1
			],
			"name":"basketball_Ball_Mat",
			"pbrMetallicRoughness":{
				"baseColorFactor":[
					0,
					0,
					0,
					1
				]
			}
		}
	],
	"meshes":[
		{
			"name":"mesh",
			"primitives":[
				{
					"attributes":{
						"POSITION":0,
						"NORMAL":1,
						"TEXCOORD_0":2
					},
					"indices":3,
					"material":0
				}
			]
		}
	],
	"accessors":[
		{
			"bufferView":0,
			"componentType":5126,
			"count":16776,
			"max":[
				9.862224578857422,
				9.837562561035156,
				0
			],
			"min":[
				-9.862224578857422,
				-9.837562561035156,
				-19.724451065063477
			],
			"type":"VEC3"
		},
		{
			"bufferView":1,
			"componentType":5126,
			"count":16776,
			"type":"VEC3"
		},
		{
			"bufferView":2,
			"componentType":5126,
			"count":16776,
			"type":"VEC2"
		},
		{
			"bufferView":3,
			"componentType":5123,
			"count":96384,
			"type":"SCALAR"
		}
	],
	"bufferViews":[
		{
			"buffer":0,
			"byteLength":201312,
			"byteOffset":0,
			"target":34962
		},
		{
			"buffer":0,
			"byteLength":201312,
			"byteOffset":201312,
			"target":34962
		},
		{
			"buffer":0,
			"byteLength":134208,
			"byteOffset":402624,
			"target":34962
		},
		{
			"buffer":0,
			"byteLength":192768,
			"byteOffset":536832,
			"target":34963
		}
	],
	"buffers":[
		{
			"byteLength":729600,
			"uri":"mesh.bin"
		}
	]
}
