{
	"asset":{
		"generator":"Khronos glTF Blender I/O v4.3.47",
		"version":"2.0"
	},
	"scene":0,
	"scenes":[
		{
			"name":"Scene",
			"nodes":[
				0
			]
		}
	],
	"nodes":[
		{
			"mesh":0,
			"name":"mesh",
			"rotation":[
				0.7071068286895752,
				0,
				0,
				0.7071068286895752
			]
		}
	],
	"materials":[
		{
			"doubleSided":true,
			"emissiveFactor":[
				1,
				1,
				1
			],
			"name":"texture_mat",
			"pbrMetallicRoughness":{
				"baseColorFactor":[
					0,
					0,
					0,
					1
				]
			}
		}
	],
	"meshes":[
		{
			"name":"mesh.002",
			"primitives":[
				{
					"attributes":{
						"POSITION":0,
						"NORMAL":1,
						"TEXCOORD_0":2
					},
					"indices":3,
					"material":0
				}
			]
		}
	],
	"accessors":[
		{
			"bufferView":0,
			"componentType":5126,
			"count":21811,
			"max":[
				8.085335731506348,
				8.176965713500977,
				0
			],
			"min":[
				-8.085335731506348,
				-8.176965713500977,
				-5.920080184936523
			],
			"type":"VEC3"
		},
		{
			"bufferView":1,
			"componentType":5126,
			"count":21811,
			"type":"VEC3"
		},
		{
			"bufferView":2,
			"componentType":5126,
			"count":21811,
			"type":"VEC2"
		},
		{
			"bufferView":3,
			"componentType":5123,
			"count":129024,
			"type":"SCALAR"
		}
	],
	"bufferViews":[
		{
			"buffer":0,
			"byteLength":261732,
			"byteOffset":0,
			"target":34962
		},
		{
			"buffer":0,
			"byteLength":261732,
			"byteOffset":261732,
			"target":34962
		},
		{
			"buffer":0,
			"byteLength":174488,
			"byteOffset":523464,
			"target":34962
		},
		{
			"buffer":0,
			"byteLength":258048,
			"byteOffset":697952,
			"target":34963
		}
	],
	"buffers":[
		{
			"byteLength":956000,
			"uri":"mesh.bin"
		}
	]
}
