{
	"asset":{
		"generator":"Khronos glTF Blender I/O v4.3.47",
		"version":"2.0"
	},
	"scene":0,
	"scenes":[
		{
			"name":"Scene",
			"nodes":[
				0
			]
		}
	],
	"nodes":[
		{
			"mesh":0,
			"name":"chalice",
			"rotation":[
				0.7071068286895752,
				0,
				0,
				0.7071068286895752
			]
		}
	],
	"materials":[
		{
			"doubleSided":true,
			"emissiveFactor":[
				1,
				1,
				1
			],
			"name":"texture_mat",
			"pbrMetallicRoughness":{
				"baseColorFactor":[
					0,
					0,
					0,
					1
				]
			}
		}
	],
	"meshes":[
		{
			"name":"chalice.002",
			"primitives":[
				{
					"attributes":{
						"POSITION":0,
						"NORMAL":1,
						"TEXCOORD_0":2
					},
					"indices":3,
					"material":0
				}
			]
		}
	],
	"accessors":[
		{
			"bufferView":0,
			"componentType":5126,
			"count":75097,
			"max":[
				4.4853973388671875,
				4.484443664550781,
				8.290390014648438
			],
			"min":[
				-4.4848175048828125,
				-4.4857635498046875,
				-6.52685546875
			],
			"type":"VEC3"
		},
		{
			"bufferView":1,
			"componentType":5126,
			"count":75097,
			"type":"VEC3"
		},
		{
			"bufferView":2,
			"componentType":5126,
			"count":75097,
			"type":"VEC2"
		},
		{
			"bufferView":3,
			"componentType":5125,
			"count":85056,
			"type":"SCALAR"
		}
	],
	"bufferViews":[
		{
			"buffer":0,
			"byteLength":901164,
			"byteOffset":0,
			"target":34962
		},
		{
			"buffer":0,
			"byteLength":901164,
			"byteOffset":901164,
			"target":34962
		},
		{
			"buffer":0,
			"byteLength":600776,
			"byteOffset":1802328,
			"target":34962
		},
		{
			"buffer":0,
			"byteLength":340224,
			"byteOffset":2403104,
			"target":34963
		}
	],
	"buffers":[
		{
			"byteLength":2743328,
			"uri":"mesh.bin"
		}
	]
}
