{
	"asset":{
		"generator":"Khronos glTF Blender I/O v4.3.47",
		"version":"2.0"
	},
	"scene":0,
	"scenes":[
		{
			"name":"Scene",
			"nodes":[
				0
			]
		}
	],
	"nodes":[
		{
			"mesh":0,
			"name":"mesh",
			"rotation":[
				0.7071068286895752,
				0,
				0,
				0.7071068286895752
			]
		}
	],
	"materials":[
		{
			"doubleSided":true,
			"emissiveFactor":[
				1,
				1,
				1
			],
			"name":"texture_mat",
			"pbrMetallicRoughness":{
				"baseColorFactor":[
					0,
					0,
					0,
					1
				]
			}
		}
	],
	"meshes":[
		{
			"name":"mesh.008",
			"primitives":[
				{
					"attributes":{
						"POSITION":0,
						"NORMAL":1,
						"TEXCOORD_0":2
					},
					"indices":3,
					"material":0
				}
			]
		}
	],
	"accessors":[
		{
			"bufferView":0,
			"componentType":5126,
			"count":599783,
			"max":[
				0.45021551847457886,
				0.46877214312553406,
				0.45484036207199097
			],
			"min":[
				-0.34221476316452026,
				-0.4132760465145111,
				-0.2862878441810608
			],
			"type":"VEC3"
		},
		{
			"bufferView":1,
			"componentType":5126,
			"count":599783,
			"type":"VEC3"
		},
		{
			"bufferView":2,
			"componentType":5126,
			"count":599783,
			"type":"VEC2"
		},
		{
			"bufferView":3,
			"componentType":5125,
			"count":600000,
			"type":"SCALAR"
		}
	],
	"bufferViews":[
		{
			"buffer":0,
			"byteLength":7197396,
			"byteOffset":0,
			"target":34962
		},
		{
			"buffer":0,
			"byteLength":7197396,
			"byteOffset":7197396,
			"target":34962
		},
		{
			"buffer":0,
			"byteLength":4798264,
			"byteOffset":14394792,
			"target":34962
		},
		{
			"buffer":0,
			"byteLength":2400000,
			"byteOffset":19193056,
			"target":34963
		}
	],
	"buffers":[
		{
			"byteLength":21593056,
			"uri":"mesh.bin"
		}
	]
}
