{
	"asset":{
		"generator":"Khronos glTF Blender I/O v4.3.47",
		"version":"2.0"
	},
	"scene":0,
	"scenes":[
		{
			"name":"Scene",
			"nodes":[
				0
			]
		}
	],
	"nodes":[
		{
			"mesh":0,
			"name":"mesh",
			"rotation":[
				0.7071068286895752,
				0,
				0,
				0.7071068286895752
			]
		}
	],
	"materials":[
		{
			"doubleSided":true,
			"emissiveFactor":[
				1,
				1,
				1
			],
			"name":"texture_mat",
			"pbrMetallicRoughness":{
				"baseColorFactor":[
					0,
					0,
					0,
					1
				]
			}
		}
	],
	"meshes":[
		{
			"name":"mesh.001",
			"primitives":[
				{
					"attributes":{
						"POSITION":0,
						"NORMAL":1,
						"TEXCOORD_0":2
					},
					"indices":3,
					"material":0
				}
			]
		}
	],
	"accessors":[
		{
			"bufferView":0,
			"componentType":5126,
			"count":598981,
			"max":[
				0.2907586395740509,
				0.2387283593416214,
				0.29901066422462463
			],
			"min":[
				-0.30262109637260437,
				-0.3343116343021393,
				-0.2920109033584595
			],
			"type":"VEC3"
		},
		{
			"bufferView":1,
			"componentType":5126,
			"count":598981,
			"type":"VEC3"
		},
		{
			"bufferView":2,
			"componentType":5126,
			"count":598981,
			"type":"VEC2"
		},
		{
			"bufferView":3,
			"componentType":5125,
			"count":600000,
			"type":"SCALAR"
		}
	],
	"bufferViews":[
		{
			"buffer":0,
			"byteLength":7187772,
			"byteOffset":0,
			"target":34962
		},
		{
			"buffer":0,
			"byteLength":7187772,
			"byteOffset":7187772,
			"target":34962
		},
		{
			"buffer":0,
			"byteLength":4791848,
			"byteOffset":14375544,
			"target":34962
		},
		{
			"buffer":0,
			"byteLength":2400000,
			"byteOffset":19167392,
			"target":34963
		}
	],
	"buffers":[
		{
			"byteLength":21567392,
			"uri":"mesh.bin"
		}
	]
}
