{
	"asset":{
		"generator":"Khronos glTF Blender I/O v4.3.47",
		"version":"2.0"
	},
	"scene":0,
	"scenes":[
		{
			"name":"Scene",
			"nodes":[
				0
			]
		}
	],
	"nodes":[
		{
			"mesh":0,
			"name":"mesh",
			"rotation":[
				0.7071068286895752,
				0,
				0,
				0.7071068286895752
			]
		}
	],
	"materials":[
		{
			"doubleSided":true,
			"emissiveFactor":[
				1,
				1,
				1
			],
			"name":"texture_mat",
			"pbrMetallicRoughness":{
				"baseColorFactor":[
					0,
					0,
					0,
					1
				]
			}
		}
	],
	"meshes":[
		{
			"name":"mesh.004",
			"primitives":[
				{
					"attributes":{
						"POSITION":0,
						"NORMAL":1,
						"TEXCOORD_0":2
					},
					"indices":3,
					"material":0
				}
			]
		}
	],
	"accessors":[
		{
			"bufferView":0,
			"componentType":5126,
			"count":599532,
			"max":[
				0.2314339429140091,
				0.2110159695148468,
				0.21658530831336975
			],
			"min":[
				-0.172068789601326,
				-0.2046784609556198,
				-0.2406121790409088
			],
			"type":"VEC3"
		},
		{
			"bufferView":1,
			"componentType":5126,
			"count":599532,
			"type":"VEC3"
		},
		{
			"bufferView":2,
			"componentType":5126,
			"count":599532,
			"type":"VEC2"
		},
		{
			"bufferView":3,
			"componentType":5125,
			"count":600000,
			"type":"SCALAR"
		}
	],
	"bufferViews":[
		{
			"buffer":0,
			"byteLength":7194384,
			"byteOffset":0,
			"target":34962
		},
		{
			"buffer":0,
			"byteLength":7194384,
			"byteOffset":7194384,
			"target":34962
		},
		{
			"buffer":0,
			"byteLength":4796256,
			"byteOffset":14388768,
			"target":34962
		},
		{
			"buffer":0,
			"byteLength":2400000,
			"byteOffset":19185024,
			"target":34963
		}
	],
	"buffers":[
		{
			"byteLength":21585024,
			"uri":"mesh.bin"
		}
	]
}
