{
	"asset":{
		"generator":"Khronos glTF Blender I/O v4.3.47",
		"version":"2.0"
	},
	"scene":0,
	"scenes":[
		{
			"name":"Scene",
			"nodes":[
				0
			]
		}
	],
	"nodes":[
		{
			"mesh":0,
			"name":"mesh",
			"rotation":[
				0.7071068286895752,
				0,
				0,
				0.7071068286895752
			]
		}
	],
	"materials":[
		{
			"doubleSided":true,
			"emissiveFactor":[
				1,
				1,
				1
			],
			"name":"texture_mat",
			"pbrMetallicRoughness":{
				"baseColorFactor":[
					0,
					0,
					0,
					1
				]
			}
		}
	],
	"meshes":[
		{
			"name":"mesh.005",
			"primitives":[
				{
					"attributes":{
						"POSITION":0,
						"NORMAL":1,
						"TEXCOORD_0":2
					},
					"indices":3,
					"material":0
				}
			]
		}
	],
	"accessors":[
		{
			"bufferView":0,
			"componentType":5126,
			"count":17874,
			"max":[
				7.170615196228027,
				2.6772069931030273,
				0
			],
			"min":[
				-7.170615196228027,
				-2.6772069931030273,
				-15.89699935913086
			],
			"type":"VEC3"
		},
		{
			"bufferView":1,
			"componentType":5126,
			"count":17874,
			"type":"VEC3"
		},
		{
			"bufferView":2,
			"componentType":5126,
			"count":17874,
			"type":"VEC2"
		},
		{
			"bufferView":3,
			"componentType":5123,
			"count":104832,
			"type":"SCALAR"
		}
	],
	"bufferViews":[
		{
			"buffer":0,
			"byteLength":214488,
			"byteOffset":0,
			"target":34962
		},
		{
			"buffer":0,
			"byteLength":214488,
			"byteOffset":214488,
			"target":34962
		},
		{
			"buffer":0,
			"byteLength":142992,
			"byteOffset":428976,
			"target":34962
		},
		{
			"buffer":0,
			"byteLength":209664,
			"byteOffset":571968,
			"target":34963
		}
	],
	"buffers":[
		{
			"byteLength":781632,
			"uri":"mesh.bin"
		}
	]
}
