{
	"asset":{
		"generator":"Khronos glTF Blender I/O v4.3.47",
		"version":"2.0"
	},
	"scene":0,
	"scenes":[
		{
			"name":"Scene",
			"nodes":[
				0
			]
		}
	],
	"nodes":[
		{
			"mesh":0,
			"name":"mesh",
			"rotation":[
				0.7071068286895752,
				0,
				0,
				0.7071068286895752
			]
		}
	],
	"materials":[
		{
			"doubleSided":true,
			"emissiveFactor":[
				1,
				1,
				1
			],
			"name":"texture_mat",
			"pbrMetallicRoughness":{
				"baseColorFactor":[
					0,
					0,
					0,
					1
				]
			}
		}
	],
	"meshes":[
		{
			"name":"mesh.010",
			"primitives":[
				{
					"attributes":{
						"POSITION":0,
						"NORMAL":1,
						"TEXCOORD_0":2
					},
					"indices":3,
					"material":0
				}
			]
		}
	],
	"accessors":[
		{
			"bufferView":0,
			"componentType":5126,
			"count":599103,
			"max":[
				0.18302816152572632,
				0.2242303192615509,
				0.14389048516750336
			],
			"min":[
				-0.14954715967178345,
				-0.3093114197254181,
				-0.13524140417575836
			],
			"type":"VEC3"
		},
		{
			"bufferView":1,
			"componentType":5126,
			"count":599103,
			"type":"VEC3"
		},
		{
			"bufferView":2,
			"componentType":5126,
			"count":599103,
			"type":"VEC2"
		},
		{
			"bufferView":3,
			"componentType":5125,
			"count":600000,
			"type":"SCALAR"
		}
	],
	"bufferViews":[
		{
			"buffer":0,
			"byteLength":7189236,
			"byteOffset":0,
			"target":34962
		},
		{
			"buffer":0,
			"byteLength":7189236,
			"byteOffset":7189236,
			"target":34962
		},
		{
			"buffer":0,
			"byteLength":4792824,
			"byteOffset":14378472,
			"target":34962
		},
		{
			"buffer":0,
			"byteLength":2400000,
			"byteOffset":19171296,
			"target":34963
		}
	],
	"buffers":[
		{
			"byteLength":21571296,
			"uri":"mesh.bin"
		}
	]
}
