{
	"asset":{
		"generator":"Khronos glTF Blender I/O v4.3.47",
		"version":"2.0"
	},
	"scene":0,
	"scenes":[
		{
			"name":"Scene",
			"nodes":[
				0
			]
		}
	],
	"nodes":[
		{
			"mesh":0,
			"name":"mesh",
			"rotation":[
				0.7071068286895752,
				0,
				0,
				0.7071068286895752
			]
		}
	],
	"materials":[
		{
			"doubleSided":true,
			"emissiveFactor":[
				1,
				1,
				1
			],
			"name":"texture_mat",
			"pbrMetallicRoughness":{
				"baseColorFactor":[
					0,
					0,
					0,
					1
				]
			}
		}
	],
	"meshes":[
		{
			"name":"mesh.008",
			"primitives":[
				{
					"attributes":{
						"POSITION":0,
						"NORMAL":1,
						"TEXCOORD_0":2
					},
					"indices":3,
					"material":0
				}
			]
		}
	],
	"accessors":[
		{
			"bufferView":0,
			"componentType":5126,
			"count":18542,
			"max":[
				5.529428958892822,
				5.529428958892822,
				0
			],
			"min":[
				-5.529428958892822,
				-5.529428958892822,
				-4.990108966827393
			],
			"type":"VEC3"
		},
		{
			"bufferView":1,
			"componentType":5126,
			"count":18542,
			"type":"VEC3"
		},
		{
			"bufferView":2,
			"componentType":5126,
			"count":18542,
			"type":"VEC2"
		},
		{
			"bufferView":3,
			"componentType":5123,
			"count":106608,
			"type":"SCALAR"
		}
	],
	"bufferViews":[
		{
			"buffer":0,
			"byteLength":222504,
			"byteOffset":0,
			"target":34962
		},
		{
			"buffer":0,
			"byteLength":222504,
			"byteOffset":222504,
			"target":34962
		},
		{
			"buffer":0,
			"byteLength":148336,
			"byteOffset":445008,
			"target":34962
		},
		{
			"buffer":0,
			"byteLength":213216,
			"byteOffset":593344,
			"target":34963
		}
	],
	"buffers":[
		{
			"byteLength":806560,
			"uri":"mesh.bin"
		}
	]
}
