{
	"asset":{
		"generator":"Khronos glTF Blender I/O v4.3.47",
		"version":"2.0"
	},
	"scene":0,
	"scenes":[
		{
			"name":"Scene",
			"nodes":[
				0
			]
		}
	],
	"nodes":[
		{
			"mesh":0,
			"name":"mesh",
			"rotation":[
				0.7071068286895752,
				0,
				0,
				0.7071068286895752
			]
		}
	],
	"materials":[
		{
			"doubleSided":true,
			"emissiveFactor":[
				1,
				1,
				1
			],
			"name":"texture_mat",
			"pbrMetallicRoughness":{
				"baseColorFactor":[
					0,
					0,
					0,
					1
				]
			}
		}
	],
	"meshes":[
		{
			"name":"mesh.005",
			"primitives":[
				{
					"attributes":{
						"POSITION":0,
						"NORMAL":1,
						"TEXCOORD_0":2
					},
					"indices":3,
					"material":0
				}
			]
		}
	],
	"accessors":[
		{
			"bufferView":0,
			"componentType":5126,
			"count":598216,
			"max":[
				0.21245026588439941,
				0.18985393643379211,
				0.16345776617527008
			],
			"min":[
				-0.1694563776254654,
				-0.23770710825920105,
				-0.21017518639564514
			],
			"type":"VEC3"
		},
		{
			"bufferView":1,
			"componentType":5126,
			"count":598216,
			"type":"VEC3"
		},
		{
			"bufferView":2,
			"componentType":5126,
			"count":598216,
			"type":"VEC2"
		},
		{
			"bufferView":3,
			"componentType":5125,
			"count":600000,
			"type":"SCALAR"
		}
	],
	"bufferViews":[
		{
			"buffer":0,
			"byteLength":7178592,
			"byteOffset":0,
			"target":34962
		},
		{
			"buffer":0,
			"byteLength":7178592,
			"byteOffset":7178592,
			"target":34962
		},
		{
			"buffer":0,
			"byteLength":4785728,
			"byteOffset":14357184,
			"target":34962
		},
		{
			"buffer":0,
			"byteLength":2400000,
			"byteOffset":19142912,
			"target":34963
		}
	],
	"buffers":[
		{
			"byteLength":21542912,
			"uri":"mesh.bin"
		}
	]
}
