{
	"asset":{
		"generator":"Khronos glTF Blender I/O v4.3.47",
		"version":"2.0"
	},
	"scene":0,
	"scenes":[
		{
			"name":"Scene",
			"nodes":[
				0
			]
		}
	],
	"nodes":[
		{
			"mesh":0,
			"name":"mesh",
			"rotation":[
				0.7071068286895752,
				0,
				0,
				0.7071068286895752
			]
		}
	],
	"materials":[
		{
			"doubleSided":true,
			"emissiveFactor":[
				1,
				1,
				1
			],
			"name":"texture_mat",
			"pbrMetallicRoughness":{
				"baseColorFactor":[
					0,
					0,
					0,
					1
				]
			}
		}
	],
	"meshes":[
		{
			"name":"mesh.007",
			"primitives":[
				{
					"attributes":{
						"POSITION":0,
						"NORMAL":1,
						"TEXCOORD_0":2
					},
					"indices":3,
					"material":0
				}
			]
		}
	],
	"accessors":[
		{
			"bufferView":0,
			"componentType":5126,
			"count":598935,
			"max":[
				0.196923166513443,
				0.4510589838027954,
				0.10618360340595245
			],
			"min":[
				-0.2160278707742691,
				-0.35872629284858704,
				-0.0942363515496254
			],
			"type":"VEC3"
		},
		{
			"bufferView":1,
			"componentType":5126,
			"count":598935,
			"type":"VEC3"
		},
		{
			"bufferView":2,
			"componentType":5126,
			"count":598935,
			"type":"VEC2"
		},
		{
			"bufferView":3,
			"componentType":5125,
			"count":600000,
			"type":"SCALAR"
		}
	],
	"bufferViews":[
		{
			"buffer":0,
			"byteLength":7187220,
			"byteOffset":0,
			"target":34962
		},
		{
			"buffer":0,
			"byteLength":7187220,
			"byteOffset":7187220,
			"target":34962
		},
		{
			"buffer":0,
			"byteLength":4791480,
			"byteOffset":14374440,
			"target":34962
		},
		{
			"buffer":0,
			"byteLength":2400000,
			"byteOffset":19165920,
			"target":34963
		}
	],
	"buffers":[
		{
			"byteLength":21565920,
			"uri":"mesh.bin"
		}
	]
}
