{
	"asset":{
		"generator":"Khronos glTF Blender I/O v4.3.47",
		"version":"2.0"
	},
	"scene":0,
	"scenes":[
		{
			"name":"Scene",
			"nodes":[
				0
			]
		}
	],
	"nodes":[
		{
			"mesh":0,
			"name":"mesh",
			"rotation":[
				0.7071068286895752,
				0,
				0,
				0.7071068286895752
			]
		}
	],
	"materials":[
		{
			"doubleSided":true,
			"emissiveFactor":[
				1,
				1,
				1
			],
			"name":"texture_mat",
			"pbrMetallicRoughness":{
				"baseColorFactor":[
					0,
					0,
					0,
					1
				]
			}
		}
	],
	"meshes":[
		{
			"name":"mesh.007",
			"primitives":[
				{
					"attributes":{
						"POSITION":0,
						"NORMAL":1,
						"TEXCOORD_0":2
					},
					"indices":3,
					"material":0
				}
			]
		}
	],
	"accessors":[
		{
			"bufferView":0,
			"componentType":5126,
			"count":17564,
			"max":[
				0.4715520143508911,
				1.0490000247955322,
				0.7367839813232422
			],
			"min":[
				-0.4715520143508911,
				-0.6689090132713318,
				-0.9536460041999817
			],
			"type":"VEC3"
		},
		{
			"bufferView":1,
			"componentType":5126,
			"count":17564,
			"type":"VEC3"
		},
		{
			"bufferView":2,
			"componentType":5126,
			"count":17564,
			"type":"VEC2"
		},
		{
			"bufferView":3,
			"componentType":5123,
			"count":17568,
			"type":"SCALAR"
		}
	],
	"bufferViews":[
		{
			"buffer":0,
			"byteLength":210768,
			"byteOffset":0,
			"target":34962
		},
		{
			"buffer":0,
			"byteLength":210768,
			"byteOffset":210768,
			"target":34962
		},
		{
			"buffer":0,
			"byteLength":140512,
			"byteOffset":421536,
			"target":34962
		},
		{
			"buffer":0,
			"byteLength":35136,
			"byteOffset":562048,
			"target":34963
		}
	],
	"buffers":[
		{
			"byteLength":597184,
			"uri":"mesh.bin"
		}
	]
}
