{
	"asset":{
		"generator":"Khronos glTF Blender I/O v4.3.47",
		"version":"2.0"
	},
	"scene":0,
	"scenes":[
		{
			"name":"Scene",
			"nodes":[
				0
			]
		}
	],
	"nodes":[
		{
			"mesh":0,
			"name":"mesh",
			"rotation":[
				0.7071068286895752,
				0,
				0,
				0.7071068286895752
			]
		}
	],
	"materials":[
		{
			"doubleSided":true,
			"emissiveFactor":[
				1,
				1,
				1
			],
			"name":"texture_mat",
			"pbrMetallicRoughness":{
				"baseColorFactor":[
					0,
					0,
					0,
					1
				]
			}
		}
	],
	"meshes":[
		{
			"name":"mesh.004",
			"primitives":[
				{
					"attributes":{
						"POSITION":0,
						"NORMAL":1,
						"TEXCOORD_0":2
					},
					"indices":3,
					"material":0
				}
			]
		}
	],
	"accessors":[
		{
			"bufferView":0,
			"componentType":5126,
			"count":4191,
			"max":[
				14.905437469482422,
				6.085259914398193,
				0
			],
			"min":[
				-14.905437469482422,
				-6.085259914398193,
				-3.044027090072632
			],
			"type":"VEC3"
		},
		{
			"bufferView":1,
			"componentType":5126,
			"count":4191,
			"type":"VEC3"
		},
		{
			"bufferView":2,
			"componentType":5126,
			"count":4191,
			"type":"VEC2"
		},
		{
			"bufferView":3,
			"componentType":5123,
			"count":22788,
			"type":"SCALAR"
		}
	],
	"bufferViews":[
		{
			"buffer":0,
			"byteLength":50292,
			"byteOffset":0,
			"target":34962
		},
		{
			"buffer":0,
			"byteLength":50292,
			"byteOffset":50292,
			"target":34962
		},
		{
			"buffer":0,
			"byteLength":33528,
			"byteOffset":100584,
			"target":34962
		},
		{
			"buffer":0,
			"byteLength":45576,
			"byteOffset":134112,
			"target":34963
		}
	],
	"buffers":[
		{
			"byteLength":179688,
			"uri":"mesh.bin"
		}
	]
}
