{
	"asset":{
		"generator":"Khronos glTF Blender I/O v4.3.47",
		"version":"2.0"
	},
	"scene":0,
	"scenes":[
		{
			"name":"Scene",
			"nodes":[
				0
			]
		}
	],
	"nodes":[
		{
			"mesh":0,
			"name":"ashtray",
			"rotation":[
				0.7071068286895752,
				0,
				0,
				0.7071068286895752
			]
		}
	],
	"materials":[
		{
			"doubleSided":true,
			"emissiveFactor":[
				1,
				1,
				1
			],
			"name":"texture_mat",
			"pbrMetallicRoughness":{
				"baseColorFactor":[
					0,
					0,
					0,
					1
				]
			}
		}
	],
	"meshes":[
		{
			"name":"ashtray",
			"primitives":[
				{
					"attributes":{
						"POSITION":0,
						"NORMAL":1,
						"TEXCOORD_0":2
					},
					"indices":3,
					"material":0
				}
			]
		}
	],
	"accessors":[
		{
			"bufferView":0,
			"componentType":5126,
			"count":2042,
			"max":[
				7.456897735595703,
				7.456869602203369,
				-0.9057641625404358
			],
			"min":[
				-7.4568963050842285,
				-7.456924915313721,
				-6.5803728103637695
			],
			"type":"VEC3"
		},
		{
			"bufferView":1,
			"componentType":5126,
			"count":2042,
			"type":"VEC3"
		},
		{
			"bufferView":2,
			"componentType":5126,
			"count":2042,
			"type":"VEC2"
		},
		{
			"bufferView":3,
			"componentType":5123,
			"count":10500,
			"type":"SCALAR"
		}
	],
	"bufferViews":[
		{
			"buffer":0,
			"byteLength":24504,
			"byteOffset":0,
			"target":34962
		},
		{
			"buffer":0,
			"byteLength":24504,
			"byteOffset":24504,
			"target":34962
		},
		{
			"buffer":0,
			"byteLength":16336,
			"byteOffset":49008,
			"target":34962
		},
		{
			"buffer":0,
			"byteLength":21000,
			"byteOffset":65344,
			"target":34963
		}
	],
	"buffers":[
		{
			"byteLength":86344,
			"uri":"mesh.bin"
		}
	]
}
