{
	"asset":{
		"generator":"Khronos glTF Blender I/O v4.3.47",
		"version":"2.0"
	},
	"scene":0,
	"scenes":[
		{
			"name":"Scene",
			"nodes":[
				0
			]
		}
	],
	"nodes":[
		{
			"mesh":0,
			"name":"mesh",
			"rotation":[
				0.7071068286895752,
				0,
				0,
				0.7071068286895752
			]
		}
	],
	"materials":[
		{
			"doubleSided":true,
			"emissiveFactor":[
				1,
				1,
				1
			],
			"name":"texture_mat",
			"pbrMetallicRoughness":{
				"baseColorFactor":[
					0,
					0,
					0,
					1
				]
			}
		}
	],
	"meshes":[
		{
			"name":"mesh.003",
			"primitives":[
				{
					"attributes":{
						"POSITION":0,
						"NORMAL":1,
						"TEXCOORD_0":2
					},
					"indices":3,
					"material":0
				}
			]
		}
	],
	"accessors":[
		{
			"bufferView":0,
			"componentType":5126,
			"count":599579,
			"max":[
				0.15343143045902252,
				0.471233606338501,
				0.35540714859962463
			],
			"min":[
				-0.18109777569770813,
				-0.24433240294456482,
				-0.2106567621231079
			],
			"type":"VEC3"
		},
		{
			"bufferView":1,
			"componentType":5126,
			"count":599579,
			"type":"VEC3"
		},
		{
			"bufferView":2,
			"componentType":5126,
			"count":599579,
			"type":"VEC2"
		},
		{
			"bufferView":3,
			"componentType":5125,
			"count":600000,
			"type":"SCALAR"
		}
	],
	"bufferViews":[
		{
			"buffer":0,
			"byteLength":7194948,
			"byteOffset":0,
			"target":34962
		},
		{
			"buffer":0,
			"byteLength":7194948,
			"byteOffset":7194948,
			"target":34962
		},
		{
			"buffer":0,
			"byteLength":4796632,
			"byteOffset":14389896,
			"target":34962
		},
		{
			"buffer":0,
			"byteLength":2400000,
			"byteOffset":19186528,
			"target":34963
		}
	],
	"buffers":[
		{
			"byteLength":21586528,
			"uri":"mesh.bin"
		}
	]
}
