{
	"asset":{
		"generator":"Khronos glTF Blender I/O v4.3.47",
		"version":"2.0"
	},
	"extensionsUsed":[
		"KHR_materials_specular"
	],
	"scene":0,
	"scenes":[
		{
			"name":"Scene",
			"nodes":[
				0
			]
		}
	],
	"nodes":[
		{
			"mesh":0,
			"name":"Triceratops_Toy",
			"rotation":[
				0.7071068286895752,
				0,
				0,
				0.7071068286895752
			]
		}
	],
	"materials":[
		{
			"doubleSided":true,
			"emissiveFactor":[
				1,
				1,
				1
			],
			"name":"texture_mat",
			"pbrMetallicRoughness":{
				"baseColorFactor":[
					0,
					0,
					0,
					1
				]
			}
		},
		{
			"doubleSided":true,
			"extensions":{
				"KHR_materials_specular":{
					"specularFactor":0
				}
			},
			"name":"Triceratops_dark_3DShaker",
			"pbrMetallicRoughness":{
				"baseColorFactor":[
					0.800000011920929,
					0.800000011920929,
					0.800000011920929,
					1
				],
				"metallicFactor":0
			}
		},
		{
			"doubleSided":true,
			"extensions":{
				"KHR_materials_specular":{
					"specularFactor":0
				}
			},
			"name":"Plush_black_3DShaker",
			"pbrMetallicRoughness":{
				"baseColorFactor":[
					0.800000011920929,
					0.800000011920929,
					0.800000011920929,
					1
				],
				"metallicFactor":0
			}
		},
		{
			"doubleSided":true,
			"extensions":{
				"KHR_materials_specular":{
					"specularFactor":0
				}
			},
			"name":"Plush_white_3DShaker",
			"pbrMetallicRoughness":{
				"baseColorFactor":[
					0.800000011920929,
					0.800000011920929,
					0.800000011920929,
					1
				],
				"metallicFactor":0
			}
		},
		{
			"doubleSided":true,
			"extensions":{
				"KHR_materials_specular":{
					"specularFactor":0
				}
			},
			"name":"Plastic_black_3DShaker",
			"pbrMetallicRoughness":{
				"baseColorFactor":[
					0.800000011920929,
					0.800000011920929,
					0.800000011920929,
					1
				],
				"metallicFactor":0
			}
		}
	],
	"meshes":[
		{
			"name":"Triceratops_Toy",
			"primitives":[
				{
					"attributes":{
						"POSITION":0,
						"NORMAL":1,
						"TEXCOORD_0":2
					},
					"indices":3,
					"material":0
				},
				{
					"attributes":{
						"POSITION":4,
						"NORMAL":5,
						"TEXCOORD_0":6
					},
					"indices":7,
					"material":1
				},
				{
					"attributes":{
						"POSITION":8,
						"NORMAL":9,
						"TEXCOORD_0":10
					},
					"indices":11,
					"material":2
				},
				{
					"attributes":{
						"POSITION":12,
						"NORMAL":13,
						"TEXCOORD_0":14
					},
					"indices":15,
					"material":3
				},
				{
					"attributes":{
						"POSITION":16,
						"NORMAL":17,
						"TEXCOORD_0":18
					},
					"indices":19,
					"material":4
				}
			]
		}
	],
	"accessors":[
		{
			"bufferView":0,
			"componentType":5126,
			"count":12532,
			"max":[
				0.10976800322532654,
				0.5352389812469482,
				0.08037800341844559
			],
			"min":[
				-0.3128649890422821,
				-0.3369469940662384,
				-0.3522140085697174
			],
			"type":"VEC3"
		},
		{
			"bufferView":1,
			"componentType":5126,
			"count":12532,
			"type":"VEC3"
		},
		{
			"bufferView":2,
			"componentType":5126,
			"count":12532,
			"type":"VEC2"
		},
		{
			"bufferView":3,
			"componentType":5123,
			"count":56100,
			"type":"SCALAR"
		},
		{
			"bufferView":4,
			"componentType":5126,
			"count":4320,
			"max":[
				0.08258700370788574,
				0.2874560058116913,
				-0.1459590047597885
			],
			"min":[
				-0.27958500385284424,
				0.17964400351047516,
				-0.41202598810195923
			],
			"type":"VEC3"
		},
		{
			"bufferView":5,
			"componentType":5126,
			"count":4320,
			"type":"VEC3"
		},
		{
			"bufferView":6,
			"componentType":5126,
			"count":4320,
			"type":"VEC2"
		},
		{
			"bufferView":7,
			"componentType":5123,
			"count":17808,
			"type":"SCALAR"
		},
		{
			"bufferView":8,
			"componentType":5126,
			"count":400,
			"max":[
				-0.017673999071121216,
				0.5188660025596619,
				-0.1993730068206787
			],
			"min":[
				-0.18542400002479553,
				0.43348801136016846,
				-0.30149900913238525
			],
			"type":"VEC3"
		},
		{
			"bufferView":9,
			"componentType":5126,
			"count":400,
			"type":"VEC3"
		},
		{
			"bufferView":10,
			"componentType":5126,
			"count":400,
			"type":"VEC2"
		},
		{
			"bufferView":11,
			"componentType":5123,
			"count":1368,
			"type":"SCALAR"
		},
		{
			"bufferView":12,
			"componentType":5126,
			"count":1120,
			"max":[
				0.005152000114321709,
				0.5019350051879883,
				-0.3026989996433258
			],
			"min":[
				-0.20824900269508362,
				0.2852889895439148,
				-0.37824898958206177
			],
			"type":"VEC3"
		},
		{
			"bufferView":13,
			"componentType":5126,
			"count":1120,
			"type":"VEC3"
		},
		{
			"bufferView":14,
			"componentType":5126,
			"count":1120,
			"type":"VEC2"
		},
		{
			"bufferView":15,
			"componentType":5123,
			"count":4608,
			"type":"SCALAR"
		},
		{
			"bufferView":16,
			"componentType":5126,
			"count":343,
			"max":[
				-0.0029639999847859144,
				0.38191500306129456,
				-0.2678520083427429
			],
			"min":[
				-0.20013399422168732,
				0.35830798745155334,
				-0.2882150113582611
			],
			"type":"VEC3"
		},
		{
			"bufferView":17,
			"componentType":5126,
			"count":343,
			"type":"VEC3"
		},
		{
			"bufferView":18,
			"componentType":5126,
			"count":343,
			"type":"VEC2"
		},
		{
			"bufferView":19,
			"componentType":5123,
			"count":1344,
			"type":"SCALAR"
		}
	],
	"bufferViews":[
		{
			"buffer":0,
			"byteLength":150384,
			"byteOffset":0,
			"target":34962
		},
		{
			"buffer":0,
			"byteLength":150384,
			"byteOffset":150384,
			"target":34962
		},
		{
			"buffer":0,
			"byteLength":100256,
			"byteOffset":300768,
			"target":34962
		},
		{
			"buffer":0,
			"byteLength":112200,
			"byteOffset":401024,
			"target":34963
		},
		{
			"buffer":0,
			"byteLength":51840,
			"byteOffset":513224,
			"target":34962
		},
		{
			"buffer":0,
			"byteLength":51840,
			"byteOffset":565064,
			"target":34962
		},
		{
			"buffer":0,
			"byteLength":34560,
			"byteOffset":616904,
			"target":34962
		},
		{
			"buffer":0,
			"byteLength":35616,
			"byteOffset":651464,
			"target":34963
		},
		{
			"buffer":0,
			"byteLength":4800,
			"byteOffset":687080,
			"target":34962
		},
		{
			"buffer":0,
			"byteLength":4800,
			"byteOffset":691880,
			"target":34962
		},
		{
			"buffer":0,
			"byteLength":3200,
			"byteOffset":696680,
			"target":34962
		},
		{
			"buffer":0,
			"byteLength":2736,
			"byteOffset":699880,
			"target":34963
		},
		{
			"buffer":0,
			"byteLength":13440,
			"byteOffset":702616,
			"target":34962
		},
		{
			"buffer":0,
			"byteLength":13440,
			"byteOffset":716056,
			"target":34962
		},
		{
			"buffer":0,
			"byteLength":8960,
			"byteOffset":729496,
			"target":34962
		},
		{
			"buffer":0,
			"byteLength":9216,
			"byteOffset":738456,
			"target":34963
		},
		{
			"buffer":0,
			"byteLength":4116,
			"byteOffset":747672,
			"target":34962
		},
		{
			"buffer":0,
			"byteLength":4116,
			"byteOffset":751788,
			"target":34962
		},
		{
			"buffer":0,
			"byteLength":2744,
			"byteOffset":755904,
			"target":34962
		},
		{
			"buffer":0,
			"byteLength":2688,
			"byteOffset":758648,
			"target":34963
		}
	],
	"buffers":[
		{
			"byteLength":761336,
			"uri":"mesh.bin"
		}
	]
}
