{
	"asset":{
		"generator":"Khronos glTF Blender I/O v4.3.47",
		"version":"2.0"
	},
	"scene":0,
	"scenes":[
		{
			"name":"Scene",
			"nodes":[
				0
			]
		}
	],
	"nodes":[
		{
			"mesh":0,
			"name":"mesh",
			"rotation":[
				0.7071068286895752,
				0,
				0,
				0.7071068286895752
			]
		}
	],
	"materials":[
		{
			"doubleSided":true,
			"emissiveFactor":[
				1,
				1,
				1
			],
			"name":"texture_mat",
			"pbrMetallicRoughness":{
				"baseColorFactor":[
					0,
					0,
					0,
					1
				]
			}
		}
	],
	"meshes":[
		{
			"name":"mesh.002",
			"primitives":[
				{
					"attributes":{
						"POSITION":0,
						"NORMAL":1,
						"TEXCOORD_0":2
					},
					"indices":3,
					"material":0
				}
			]
		}
	],
	"accessors":[
		{
			"bufferView":0,
			"componentType":5126,
			"count":599133,
			"max":[
				0.18528489768505096,
				0.2750422954559326,
				0.2601768970489502
			],
			"min":[
				-0.19634409248828888,
				-0.18695810437202454,
				-0.20309969782829285
			],
			"type":"VEC3"
		},
		{
			"bufferView":1,
			"componentType":5126,
			"count":599133,
			"type":"VEC3"
		},
		{
			"bufferView":2,
			"componentType":5126,
			"count":599133,
			"type":"VEC2"
		},
		{
			"bufferView":3,
			"componentType":5125,
			"count":600000,
			"type":"SCALAR"
		}
	],
	"bufferViews":[
		{
			"buffer":0,
			"byteLength":7189596,
			"byteOffset":0,
			"target":34962
		},
		{
			"buffer":0,
			"byteLength":7189596,
			"byteOffset":7189596,
			"target":34962
		},
		{
			"buffer":0,
			"byteLength":4793064,
			"byteOffset":14379192,
			"target":34962
		},
		{
			"buffer":0,
			"byteLength":2400000,
			"byteOffset":19172256,
			"target":34963
		}
	],
	"buffers":[
		{
			"byteLength":21572256,
			"uri":"mesh.bin"
		}
	]
}
