{
	"asset":{
		"generator":"Khronos glTF Blender I/O v4.3.47",
		"version":"2.0"
	},
	"scene":0,
	"scenes":[
		{
			"name":"Scene",
			"nodes":[
				0
			]
		}
	],
	"nodes":[
		{
			"mesh":0,
			"name":"mesh",
			"rotation":[
				0.7071068286895752,
				0,
				0,
				0.7071068286895752
			]
		}
	],
	"materials":[
		{
			"doubleSided":true,
			"emissiveFactor":[
				1,
				1,
				1
			],
			"name":"texture_mat",
			"pbrMetallicRoughness":{
				"baseColorFactor":[
					0,
					0,
					0,
					1
				]
			}
		}
	],
	"meshes":[
		{
			"name":"mesh.006",
			"primitives":[
				{
					"attributes":{
						"POSITION":0,
						"NORMAL":1,
						"TEXCOORD_0":2
					},
					"indices":3,
					"material":0
				}
			]
		}
	],
	"accessors":[
		{
			"bufferView":0,
			"componentType":5126,
			"count":598913,
			"max":[
				0.39613664150238037,
				0.3179432451725006,
				0.24917960166931152
			],
			"min":[
				-0.28154945373535156,
				-0.2582840323448181,
				-0.2656785249710083
			],
			"type":"VEC3"
		},
		{
			"bufferView":1,
			"componentType":5126,
			"count":598913,
			"type":"VEC3"
		},
		{
			"bufferView":2,
			"componentType":5126,
			"count":598913,
			"type":"VEC2"
		},
		{
			"bufferView":3,
			"componentType":5125,
			"count":600000,
			"type":"SCALAR"
		}
	],
	"bufferViews":[
		{
			"buffer":0,
			"byteLength":7186956,
			"byteOffset":0,
			"target":34962
		},
		{
			"buffer":0,
			"byteLength":7186956,
			"byteOffset":7186956,
			"target":34962
		},
		{
			"buffer":0,
			"byteLength":4791304,
			"byteOffset":14373912,
			"target":34962
		},
		{
			"buffer":0,
			"byteLength":2400000,
			"byteOffset":19165216,
			"target":34963
		}
	],
	"buffers":[
		{
			"byteLength":21565216,
			"uri":"mesh.bin"
		}
	]
}
