{
	"asset":{
		"generator":"Khronos glTF Blender I/O v4.3.47",
		"version":"2.0"
	},
	"scene":0,
	"scenes":[
		{
			"name":"Scene",
			"nodes":[
				0
			]
		}
	],
	"nodes":[
		{
			"mesh":0,
			"name":"mesh",
			"rotation":[
				0.7071068286895752,
				0,
				0,
				0.7071068286895752
			]
		}
	],
	"materials":[
		{
			"doubleSided":true,
			"emissiveFactor":[
				1,
				1,
				1
			],
			"name":"texture_mat",
			"pbrMetallicRoughness":{
				"baseColorFactor":[
					0,
					0,
					0,
					1
				]
			}
		}
	],
	"meshes":[
		{
			"name":"mesh.006",
			"primitives":[
				{
					"attributes":{
						"POSITION":0,
						"NORMAL":1,
						"TEXCOORD_0":2
					},
					"indices":3,
					"material":0
				}
			]
		}
	],
	"accessors":[
		{
			"bufferView":0,
			"componentType":5126,
			"count":287960,
			"max":[
				9.05844497680664,
				15.260152816772461,
				20.235435485839844
			],
			"min":[
				-10.625443458557129,
				-0.02707899920642376,
				-20.048240661621094
			],
			"type":"VEC3"
		},
		{
			"bufferView":1,
			"componentType":5126,
			"count":287960,
			"type":"VEC3"
		},
		{
			"bufferView":2,
			"componentType":5126,
			"count":287960,
			"type":"VEC2"
		},
		{
			"bufferView":3,
			"componentType":5125,
			"count":1563894,
			"type":"SCALAR"
		}
	],
	"bufferViews":[
		{
			"buffer":0,
			"byteLength":3455520,
			"byteOffset":0,
			"target":34962
		},
		{
			"buffer":0,
			"byteLength":3455520,
			"byteOffset":3455520,
			"target":34962
		},
		{
			"buffer":0,
			"byteLength":2303680,
			"byteOffset":6911040,
			"target":34962
		},
		{
			"buffer":0,
			"byteLength":6255576,
			"byteOffset":9214720,
			"target":34963
		}
	],
	"buffers":[
		{
			"byteLength":15470296,
			"uri":"mesh.bin"
		}
	]
}
