{
	"asset":{
		"generator":"Khronos glTF Blender I/O v4.3.47",
		"version":"2.0"
	},
	"scene":0,
	"scenes":[
		{
			"name":"Scene",
			"nodes":[
				0
			]
		}
	],
	"nodes":[
		{
			"mesh":0,
			"name":"mesh",
			"rotation":[
				0.7071068286895752,
				0,
				0,
				0.7071068286895752
			]
		}
	],
	"materials":[
		{
			"doubleSided":true,
			"emissiveFactor":[
				1,
				1,
				1
			],
			"name":"texture_mat",
			"pbrMetallicRoughness":{
				"baseColorFactor":[
					0,
					0,
					0,
					1
				]
			}
		}
	],
	"meshes":[
		{
			"name":"mesh.001",
			"primitives":[
				{
					"attributes":{
						"POSITION":0,
						"NORMAL":1,
						"TEXCOORD_0":2
					},
					"indices":3,
					"material":0
				}
			]
		}
	],
	"accessors":[
		{
			"bufferView":0,
			"componentType":5126,
			"count":141617,
			"max":[
				5.344772815704346,
				4.317104816436768,
				0
			],
			"min":[
				-5.344772815704346,
				-4.317104816436768,
				-6.853155136108398
			],
			"type":"VEC3"
		},
		{
			"bufferView":1,
			"componentType":5126,
			"count":141617,
			"type":"VEC3"
		},
		{
			"bufferView":2,
			"componentType":5126,
			"count":141617,
			"type":"VEC2"
		},
		{
			"bufferView":3,
			"componentType":5125,
			"count":805392,
			"type":"SCALAR"
		}
	],
	"bufferViews":[
		{
			"buffer":0,
			"byteLength":1699404,
			"byteOffset":0,
			"target":34962
		},
		{
			"buffer":0,
			"byteLength":1699404,
			"byteOffset":1699404,
			"target":34962
		},
		{
			"buffer":0,
			"byteLength":1132936,
			"byteOffset":3398808,
			"target":34962
		},
		{
			"buffer":0,
			"byteLength":3221568,
			"byteOffset":4531744,
			"target":34963
		}
	],
	"buffers":[
		{
			"byteLength":7753312,
			"uri":"mesh.bin"
		}
	]
}
