{
	"asset":{
		"generator":"Khronos glTF Blender I/O v4.3.47",
		"version":"2.0"
	},
	"scene":0,
	"scenes":[
		{
			"name":"Scene",
			"nodes":[
				0
			]
		}
	],
	"nodes":[
		{
			"mesh":0,
			"name":"mesh",
			"rotation":[
				0.7071068286895752,
				0,
				0,
				0.7071068286895752
			]
		}
	],
	"materials":[
		{
			"doubleSided":true,
			"emissiveFactor":[
				1,
				1,
				1
			],
			"name":"texture_mat",
			"pbrMetallicRoughness":{
				"baseColorFactor":[
					0,
					0,
					0,
					1
				]
			}
		}
	],
	"meshes":[
		{
			"name":"mesh.003",
			"primitives":[
				{
					"attributes":{
						"POSITION":0,
						"NORMAL":1,
						"TEXCOORD_0":2
					},
					"indices":3,
					"material":0
				}
			]
		}
	],
	"accessors":[
		{
			"bufferView":0,
			"componentType":5126,
			"count":26118,
			"max":[
				0.802049994468689,
				0.8021000027656555,
				0
			],
			"min":[
				-0.802049994468689,
				-0.8021000027656555,
				-1.6043000221252441
			],
			"type":"VEC3"
		},
		{
			"bufferView":1,
			"componentType":5126,
			"count":26118,
			"type":"VEC3"
		},
		{
			"bufferView":2,
			"componentType":5126,
			"count":26118,
			"type":"VEC2"
		},
		{
			"bufferView":3,
			"componentType":5123,
			"count":154368,
			"type":"SCALAR"
		}
	],
	"bufferViews":[
		{
			"buffer":0,
			"byteLength":313416,
			"byteOffset":0,
			"target":34962
		},
		{
			"buffer":0,
			"byteLength":313416,
			"byteOffset":313416,
			"target":34962
		},
		{
			"buffer":0,
			"byteLength":208944,
			"byteOffset":626832,
			"target":34962
		},
		{
			"buffer":0,
			"byteLength":308736,
			"byteOffset":835776,
			"target":34963
		}
	],
	"buffers":[
		{
			"byteLength":1144512,
			"uri":"mesh.bin"
		}
	]
}
