{
	"asset":{
		"generator":"Khronos glTF Blender I/O v4.3.47",
		"version":"2.0"
	},
	"scene":0,
	"scenes":[
		{
			"name":"Scene",
			"nodes":[
				0
			]
		}
	],
	"nodes":[
		{
			"mesh":0,
			"name":"Tiranosaurus_Toy.001",
			"rotation":[
				0.7071068286895752,
				0,
				0,
				0.7071068286895752
			]
		}
	],
	"materials":[
		{
			"doubleSided":true,
			"emissiveFactor":[
				1,
				1,
				1
			],
			"name":"texture_mat",
			"pbrMetallicRoughness":{
				"baseColorFactor":[
					0,
					0,
					0,
					1
				]
			}
		}
	],
	"meshes":[
		{
			"name":"Tiranosaurus_Toy.001",
			"primitives":[
				{
					"attributes":{
						"POSITION":0,
						"NORMAL":1,
						"TEXCOORD_0":2
					},
					"indices":3,
					"material":0
				}
			]
		}
	],
	"accessors":[
		{
			"bufferView":0,
			"componentType":5126,
			"count":19761,
			"max":[
				0.2581210136413574,
				0.3021889925003052,
				0.1549150049686432
			],
			"min":[
				-0.2207529991865158,
				-0.4077549874782562,
				-0.4787279963493347
			],
			"type":"VEC3"
		},
		{
			"bufferView":1,
			"componentType":5126,
			"count":19761,
			"type":"VEC3"
		},
		{
			"bufferView":2,
			"componentType":5126,
			"count":19761,
			"type":"VEC2"
		},
		{
			"bufferView":3,
			"componentType":5123,
			"count":81654,
			"type":"SCALAR"
		}
	],
	"bufferViews":[
		{
			"buffer":0,
			"byteLength":237132,
			"byteOffset":0,
			"target":34962
		},
		{
			"buffer":0,
			"byteLength":237132,
			"byteOffset":237132,
			"target":34962
		},
		{
			"buffer":0,
			"byteLength":158088,
			"byteOffset":474264,
			"target":34962
		},
		{
			"buffer":0,
			"byteLength":163308,
			"byteOffset":632352,
			"target":34963
		}
	],
	"buffers":[
		{
			"byteLength":795660,
			"uri":"mesh.bin"
		}
	]
}
