{
	"asset":{
		"generator":"Khronos glTF Blender I/O v4.3.47",
		"version":"2.0"
	},
	"scene":0,
	"scenes":[
		{
			"name":"Scene",
			"nodes":[
				0
			]
		}
	],
	"nodes":[
		{
			"mesh":0,
			"name":"mesh",
			"rotation":[
				0.7071068286895752,
				0,
				0,
				0.7071068286895752
			]
		}
	],
	"materials":[
		{
			"doubleSided":true,
			"emissiveFactor":[
				1,
				1,
				1
			],
			"name":"texture_mat",
			"pbrMetallicRoughness":{
				"baseColorFactor":[
					0,
					0,
					0,
					1
				]
			}
		}
	],
	"meshes":[
		{
			"name":"mesh.009",
			"primitives":[
				{
					"attributes":{
						"POSITION":0,
						"NORMAL":1,
						"TEXCOORD_0":2
					},
					"indices":3,
					"material":0
				}
			]
		}
	],
	"accessors":[
		{
			"bufferView":0,
			"componentType":5126,
			"count":599380,
			"max":[
				0.38224855065345764,
				0.21359054744243622,
				0.31935688853263855
			],
			"min":[
				-0.3653145432472229,
				-0.19236500561237335,
				-0.34591102600097656
			],
			"type":"VEC3"
		},
		{
			"bufferView":1,
			"componentType":5126,
			"count":599380,
			"type":"VEC3"
		},
		{
			"bufferView":2,
			"componentType":5126,
			"count":599380,
			"type":"VEC2"
		},
		{
			"bufferView":3,
			"componentType":5125,
			"count":600000,
			"type":"SCALAR"
		}
	],
	"bufferViews":[
		{
			"buffer":0,
			"byteLength":7192560,
			"byteOffset":0,
			"target":34962
		},
		{
			"buffer":0,
			"byteLength":7192560,
			"byteOffset":7192560,
			"target":34962
		},
		{
			"buffer":0,
			"byteLength":4795040,
			"byteOffset":14385120,
			"target":34962
		},
		{
			"buffer":0,
			"byteLength":2400000,
			"byteOffset":19180160,
			"target":34963
		}
	],
	"buffers":[
		{
			"byteLength":21580160,
			"uri":"mesh.bin"
		}
	]
}
