{
	"asset":{
		"generator":"Khronos glTF Blender I/O v4.3.47",
		"version":"2.0"
	},
	"scene":0,
	"scenes":[
		{
			"name":"Scene",
			"nodes":[
				0
			]
		}
	],
	"nodes":[
		{
			"mesh":0,
			"name":"mesh",
			"rotation":[
				0.7071068286895752,
				0,
				0,
				0.7071068286895752
			]
		}
	],
	"materials":[
		{
			"doubleSided":true,
			"emissiveFactor":[
				1,
				1,
				1
			],
			"name":"texture_mat",
			"pbrMetallicRoughness":{
				"baseColorFactor":[
					0,
					0,
					0,
					1
				]
			}
		}
	],
	"meshes":[
		{
			"name":"mesh.013",
			"primitives":[
				{
					"attributes":{
						"POSITION":0,
						"NORMAL":1,
						"TEXCOORD_0":2
					},
					"indices":3,
					"material":0
				}
			]
		}
	],
	"accessors":[
		{
			"bufferView":0,
			"componentType":5126,
			"count":599462,
			"max":[
				0.3735595941543579,
				0.313000351190567,
				0.21533936262130737
			],
			"min":[
				-0.2719230353832245,
				-0.18616989254951477,
				-0.2356594204902649
			],
			"type":"VEC3"
		},
		{
			"bufferView":1,
			"componentType":5126,
			"count":599462,
			"type":"VEC3"
		},
		{
			"bufferView":2,
			"componentType":5126,
			"count":599462,
			"type":"VEC2"
		},
		{
			"bufferView":3,
			"componentType":5125,
			"count":600000,
			"type":"SCALAR"
		}
	],
	"bufferViews":[
		{
			"buffer":0,
			"byteLength":7193544,
			"byteOffset":0,
			"target":34962
		},
		{
			"buffer":0,
			"byteLength":7193544,
			"byteOffset":7193544,
			"target":34962
		},
		{
			"buffer":0,
			"byteLength":4795696,
			"byteOffset":14387088,
			"target":34962
		},
		{
			"buffer":0,
			"byteLength":2400000,
			"byteOffset":19182784,
			"target":34963
		}
	],
	"buffers":[
		{
			"byteLength":21582784,
			"uri":"mesh.bin"
		}
	]
}
