{
	"asset":{
		"generator":"Khronos glTF Blender I/O v4.3.47",
		"version":"2.0"
	},
	"scene":0,
	"scenes":[
		{
			"name":"Scene",
			"nodes":[
				0
			]
		}
	],
	"nodes":[
		{
			"mesh":0,
			"name":"mesh",
			"rotation":[
				0.7071068286895752,
				0,
				0,
				0.7071068286895752
			]
		}
	],
	"materials":[
		{
			"doubleSided":true,
			"emissiveFactor":[
				1,
				1,
				1
			],
			"name":"texture_mat",
			"pbrMetallicRoughness":{
				"baseColorFactor":[
					0,
					0,
					0,
					1
				]
			}
		}
	],
	"meshes":[
		{
			"name":"mesh.011",
			"primitives":[
				{
					"attributes":{
						"POSITION":0,
						"NORMAL":1,
						"TEXCOORD_0":2
					},
					"indices":3,
					"material":0
				}
			]
		}
	],
	"accessors":[
		{
			"bufferView":0,
			"componentType":5126,
			"count":599202,
			"max":[
				0.24380934238433838,
				0.2367049902677536,
				0.1992197334766388
			],
			"min":[
				-0.18873728811740875,
				-0.222770094871521,
				-0.23015809059143066
			],
			"type":"VEC3"
		},
		{
			"bufferView":1,
			"componentType":5126,
			"count":599202,
			"type":"VEC3"
		},
		{
			"bufferView":2,
			"componentType":5126,
			"count":599202,
			"type":"VEC2"
		},
		{
			"bufferView":3,
			"componentType":5125,
			"count":600000,
			"type":"SCALAR"
		}
	],
	"bufferViews":[
		{
			"buffer":0,
			"byteLength":7190424,
			"byteOffset":0,
			"target":34962
		},
		{
			"buffer":0,
			"byteLength":7190424,
			"byteOffset":7190424,
			"target":34962
		},
		{
			"buffer":0,
			"byteLength":4793616,
			"byteOffset":14380848,
			"target":34962
		},
		{
			"buffer":0,
			"byteLength":2400000,
			"byteOffset":19174464,
			"target":34963
		}
	],
	"buffers":[
		{
			"byteLength":21574464,
			"uri":"mesh.bin"
		}
	]
}
